# xmcd
#
# Track frame offsets:
# 150
# 15895
# 33113
# 51838
# 71820
# 88709
# 103480
# 118251
# 137236
# 153604
# 175163
# 190974
# 208251
# 228231
#
# Disc length: 3300 seconds
#
#
# Revision: 10
# Processed by: cddbd v1.5.1PL0 Copyright (c) Steve Scherf et al.
# Submitted via: FreeRIP 2.90 
#
DISCID=c70ce20e
DTITLE=Enrique Iglesias - Escape
DYEAR=2001
DGENRE=Pop/Funk
TTITLE0=Escape
TTITLE1=Don't Turn Off The Lights
TTITLE2=Love To See You Cry
TTITLE3=Hero
TTITLE4=I Will Survive
TTITLE5=Love 4 Fun
TTITLE6=Maybe
TTITLE7=One Night Stand
TTITLE8=She Be The One
TTITLE9=If The World Crashes Down
TTITLE10=Escapar
TTITLE11=No apagues la luz
TTITLE12=Heroe
TTITLE13=Hero (Metromix)
EXTD=YEAR: 2001 ID3G: 62
EXTT0=
EXTT1=
EXTT2=
EXTT3=
EXTT4=
EXTT5=
EXTT6=
EXTT7=
EXTT8=
EXTT9=
EXTT10=
EXTT11=
EXTT12=
EXTT13=
PLAYORDER=
